{
  "accessors": [
    {
      "bufferView": 2,
      "componentType": 5126,
      "count": 1109,
      "max": [
        15.142247200012207,
        102.24876403808594,
        1.1187775135040283
      ],
      "min": [
        -15.142250061035156,
        -0.9963743686676025,
        -4.01053524017334
      ],
      "type": "VEC3"
    },
    {
      "bufferView": 2,
      "byteOffset": 13308,
      "componentType": 5126,
      "count": 1109,
      "max": [
        1.0,
        1.0,
        1.0
      ],
      "min": [
        -1.0,
        -1.0,
        -1.0
      ],
      "type": "VEC3"
    },
    {
      "bufferView": 1,
      "componentType": 5126,
      "count": 1109,
      "max": [
        0.41999998688697815,
        0.9800000190734863
      ],
      "min": [
        0.029999997466802597,
        0.28000009059906006
      ],
      "type": "VEC2"
    },
    {
      "bufferView": 0,
      "componentType": 5125,
      "count": 1272,
      "type": "SCALAR"
    }
  ],
  "asset": {
    "extras": {
      "author": "Islide (https://sketchfab.com/Islide)",
      "license": "CC-BY-4.0 (http://creativecommons.org/licenses/by/4.0/)",
      "source": "https://sketchfab.com/3d-models/bass-low-poly-c6454905cfba476b952dac0aa0278bd6",
      "title": "Bass [Low Poly]"
    },
    "generator": "Sketchfab-12.66.0",
    "version": "2.0"
  },
  "bufferViews": [
    {
      "buffer": 0,
      "byteLength": 5088,
      "name": "floatBufferViews",
      "target": 34963
    },
    {
      "buffer": 0,
      "byteLength": 8872,
      "byteOffset": 5088,
      "byteStride": 8,
      "name": "floatBufferViews",
      "target": 34962
    },
    {
      "buffer": 0,
      "byteLength": 26616,
      "byteOffset": 13960,
      "byteStride": 12,
      "name": "floatBufferViews",
      "target": 34962
    }
  ],
  "buffers": [
    {
      "byteLength": 40576,
      "uri": "scene.bin"
    }
  ],
  "images": [
    {
      "uri": "textures/palette_RGB_baseColor.png"
    }
  ],
  "materials": [
    {
      "name": "palette_RGB",
      "pbrMetallicRoughness": {
        "baseColorTexture": {
          "index": 0
        },
        "metallicFactor": 0.0,
        "roughnessFactor": 0.6
      }
    }
  ],
  "meshes": [
    {
      "name": "Bass_01_palette RGB_0",
      "primitives": [
        {
          "attributes": {
            "NORMAL": 1,
            "POSITION": 0,
            "TEXCOORD_0": 2
          },
          "indices": 3,
          "material": 0,
          "mode": 4
        }
      ]
    }
  ],
  "nodes": [
    {
      "children": [
        1
      ],
      "matrix": [
        0.01043357141315937,
        0.0,
        0.0,
        0.0,
        0.0,
        2.316718242392073e-18,
        -0.01043357141315937,
        0.0,
        0.0,
        0.01043357141315937,
        2.316718242392073e-18,
        0.0,
        0.0,
        0.0,
        0.0,
        1.0
      ],
      "name": "Sketchfab_model"
    },
    {
      "children": [
        2
      ],
      "matrix": [
        1.0,
        0.0,
        0.0,
        0.0,
        0.0,
        0.0,
        1.0,
        0.0,
        0.0,
        -1.0,
        0.0,
        0.0,
        0.0,
        0.0,
        0.0,
        1.0
      ],
      "name": "217b391d819c4b93a7872b9e6b917e01.fbx"
    },
    {
      "children": [
        3
      ],
      "name": "RootNode"
    },
    {
      "children": [
        4
      ],
      "matrix": [
        -1.0,
        -1.2246467991473535e-16,
        1.224646799147353e-16,
        0.0,
        -1.2246467991473535e-16,
        1.0,
        -1.2246467991473535e-16,
        0.0,
        -1.224646799147353e-16,
        -1.2246467991473535e-16,
        -1.0,
        0.0,
        0.0,
        0.0,
        0.0,
        1.0
      ],
      "name": "Bass_01"
    },
    {
      "mesh": 0,
      "name": "Bass_01_palette RGB_0"
    }
  ],
  "samplers": [
    {
      "magFilter": 9729,
      "minFilter": 9987,
      "wrapS": 10497,
      "wrapT": 10497
    }
  ],
  "scene": 0,
  "scenes": [
    {
      "name": "Sketchfab_Scene",
      "nodes": [
        0
      ]
    }
  ],
  "textures": [
    {
      "sampler": 0,
      "source": 0
    }
  ]
}
