{
  "accessors": [
    {
      "bufferView": 2,
      "componentType": 5126,
      "count": 9960,
      "max": [
        131.1535186767578,
        33.681396484375,
        46.98738479614258
      ],
      "min": [
        0.0,
        0.0,
        0.0
      ],
      "type": "VEC3"
    },
    {
      "bufferView": 2,
      "byteOffset": 119520,
      "componentType": 5126,
      "count": 9960,
      "max": [
        1.0,
        0.842983067035675,
        0.04321618750691414
      ],
      "min": [
        -1.0,
        -0.8429827690124512,
        -0.08574173599481583
      ],
      "type": "VEC3"
    },
    {
      "bufferView": 0,
      "componentType": 5125,
      "count": 28872,
      "type": "SCALAR"
    },
    {
      "bufferView": 2,
      "byteOffset": 239040,
      "componentType": 5126,
      "count": 2486,
      "max": [
        108.81462097167969,
        33.66108703613281,
        47.000144958496094
      ],
      "min": [
        4.599063873291016,
        0.09210395812988281,
        0.0
      ],
      "type": "VEC3"
    },
    {
      "bufferView": 2,
      "byteOffset": 268872,
      "componentType": 5126,
      "count": 2486,
      "max": [
        1.0,
        0.043761417269706726,
        0.0011951954802498221
      ],
      "min": [
        -1.0,
        -0.043761417269706726,
        -0.000820654327981174
      ],
      "type": "VEC3"
    },
    {
      "bufferView": 0,
      "byteOffset": 115488,
      "componentType": 5125,
      "count": 7230,
      "type": "SCALAR"
    },
    {
      "bufferView": 2,
      "byteOffset": 298704,
      "componentType": 5126,
      "count": 5066,
      "max": [
        131.1535186767578,
        33.673065185546875,
        46.98738479614258
      ],
      "min": [
        0.0,
        0.1564006805419922,
        0.0
      ],
      "type": "VEC3"
    },
    {
      "bufferView": 2,
      "byteOffset": 359496,
      "componentType": 5126,
      "count": 5066,
      "max": [
        1.0,
        1.0,
        1.0
      ],
      "min": [
        -1.0,
        -0.9999947547912598,
        -1.0
      ],
      "type": "VEC3"
    },
    {
      "bufferView": 1,
      "componentType": 5126,
      "count": 5066,
      "max": [
        1.0,
        1.0
      ],
      "min": [
        0.0,
        0.0
      ],
      "type": "VEC2"
    },
    {
      "bufferView": 0,
      "byteOffset": 144408,
      "componentType": 5125,
      "count": 14772,
      "type": "SCALAR"
    },
    {
      "bufferView": 2,
      "byteOffset": 420288,
      "componentType": 5126,
      "count": 5044,
      "max": [
        101.5584716796875,
        33.681396484375,
        47.000144958496094
      ],
      "min": [
        19.573238372802734,
        0.5332317352294922,
        0.0
      ],
      "type": "VEC3"
    },
    {
      "bufferView": 2,
      "byteOffset": 480816,
      "componentType": 5126,
      "count": 5044,
      "max": [
        0.0,
        1.0,
        1.0
      ],
      "min": [
        0.0,
        -0.9999940395355225,
        -1.0
      ],
      "type": "VEC3"
    },
    {
      "bufferView": 1,
      "byteOffset": 40528,
      "componentType": 5126,
      "count": 5044,
      "max": [
        1.0,
        1.0
      ],
      "min": [
        0.0,
        0.0
      ],
      "type": "VEC2"
    },
    {
      "bufferView": 0,
      "byteOffset": 203496,
      "componentType": 5125,
      "count": 14652,
      "type": "SCALAR"
    },
    {
      "bufferView": 2,
      "byteOffset": 541344,
      "componentType": 5126,
      "count": 2830,
      "max": [
        117.15367889404297,
        33.58998489379883,
        45.48906326293945
      ],
      "min": [
        7.636505126953125,
        0.0,
        0.0
      ],
      "type": "VEC3"
    },
    {
      "bufferView": 2,
      "byteOffset": 575304,
      "componentType": 5126,
      "count": 2830,
      "max": [
        0.0,
        0.9999995231628418,
        1.0
      ],
      "min": [
        0.0,
        -0.9999988079071045,
        -1.0
      ],
      "type": "VEC3"
    },
    {
      "bufferView": 1,
      "byteOffset": 80880,
      "componentType": 5126,
      "count": 2830,
      "max": [
        1.0,
        1.0
      ],
      "min": [
        0.0,
        0.0
      ],
      "type": "VEC2"
    },
    {
      "bufferView": 0,
      "byteOffset": 262104,
      "componentType": 5125,
      "count": 8310,
      "type": "SCALAR"
    }
  ],
  "asset": {
    "extras": {
      "author": "decah (https://sketchfab.com/decah)",
      "license": "CC-BY-4.0 (http://creativecommons.org/licenses/by/4.0/)",
      "source": "https://sketchfab.com/3d-models/parametric-bench-002-9e16160f1e944b10804e11477d765ccb",
      "title": "Parametric Bench 002"
    },
    "generator": "Sketchfab-12.66.0",
    "version": "2.0"
  },
  "bufferViews": [
    {
      "buffer": 0,
      "byteLength": 295344,
      "name": "floatBufferViews",
      "target": 34963
    },
    {
      "buffer": 0,
      "byteLength": 103520,
      "byteOffset": 295344,
      "byteStride": 8,
      "name": "floatBufferViews",
      "target": 34962
    },
    {
      "buffer": 0,
      "byteLength": 609264,
      "byteOffset": 398864,
      "byteStride": 12,
      "name": "floatBufferViews",
      "target": 34962
    }
  ],
  "buffers": [
    {
      "byteLength": 1008128,
      "uri": "scene.bin"
    }
  ],
  "materials": [
    {
      "doubleSided": true,
      "name": "Scene_-_Root",
      "pbrMetallicRoughness": {
        "metallicFactor": 0.0,
        "roughnessFactor": 0.6
      }
    }
  ],
  "meshes": [
    {
      "name": "Object_0",
      "primitives": [
        {
          "attributes": {
            "NORMAL": 1,
            "POSITION": 0
          },
          "indices": 2,
          "material": 0,
          "mode": 4
        }
      ]
    },
    {
      "name": "Object_1",
      "primitives": [
        {
          "attributes": {
            "NORMAL": 4,
            "POSITION": 3
          },
          "indices": 5,
          "material": 0,
          "mode": 4
        }
      ]
    },
    {
      "name": "Object_2",
      "primitives": [
        {
          "attributes": {
            "NORMAL": 7,
            "POSITION": 6,
            "TEXCOORD_0": 8
          },
          "indices": 9,
          "material": 0,
          "mode": 4
        }
      ]
    },
    {
      "name": "Object_3",
      "primitives": [
        {
          "attributes": {
            "NORMAL": 11,
            "POSITION": 10,
            "TEXCOORD_0": 12
          },
          "indices": 13,
          "material": 0,
          "mode": 4
        }
      ]
    },
    {
      "name": "Object_4",
      "primitives": [
        {
          "attributes": {
            "NORMAL": 15,
            "POSITION": 14,
            "TEXCOORD_0": 16
          },
          "indices": 17,
          "material": 0,
          "mode": 4
        }
      ]
    }
  ],
  "nodes": [
    {
      "children": [
        1
      ],
      "matrix": [
        13.953365325927734,
        0.0,
        0.0,
        0.0,
        0.0,
        3.0982694911702545e-15,
        -13.953365325927734,
        0.0,
        0.0,
        13.953365325927734,
        3.0982694911702545e-15,
        0.0,
        0.0,
        0.0,
        0.0,
        1.0
      ],
      "name": "Sketchfab_model"
    },
    {
      "children": [
        2
      ],
      "matrix": [
        1.0,
        0.0,
        0.0,
        0.0,
        0.0,
        1.0,
        0.0,
        0.0,
        0.0,
        0.0,
        1.0,
        0.0,
        -62.9826545715332,
        -17.479103088378906,
        -15.928318977355957,
        1.0
      ],
      "name": "Untitled 15.obj.cleaner.materialmerger.gles"
    },
    {
      "children": [
        3,
        4,
        5,
        6,
        7
      ],
      "name": "Object_2"
    },
    {
      "mesh": 0,
      "name": "Object_3"
    },
    {
      "mesh": 1,
      "name": "Object_4"
    },
    {
      "mesh": 2,
      "name": "Object_5"
    },
    {
      "mesh": 3,
      "name": "Object_6"
    },
    {
      "mesh": 4,
      "name": "Object_7"
    }
  ],
  "scene": 0,
  "scenes": [
    {
      "name": "Sketchfab_Scene",
      "nodes": [
        0
      ]
    }
  ]
}
