{
  "accessors": [
    {
      "bufferView": 2,
      "componentType": 5126,
      "count": 2560,
      "max": [
        0.0899999812245369,
        0.0899999588727951,
        0.0011500009568408132
      ],
      "min": [
        -0.09000002592802048,
        -0.09000004827976227,
        5.820766091346741e-11
      ],
      "type": "VEC3"
    },
    {
      "bufferView": 2,
      "byteOffset": 30720,
      "componentType": 5126,
      "count": 2560,
      "max": [
        1.0,
        1.0,
        1.0
      ],
      "min": [
        -1.0,
        -1.0,
        -1.0
      ],
      "type": "VEC3"
    },
    {
      "bufferView": 3,
      "componentType": 5126,
      "count": 2560,
      "max": [
        0.1607566922903061,
        0.9047059416770935,
        0.9999988675117493,
        1.0
      ],
      "min": [
        -0.8478055000305176,
        -0.8661022186279297,
        -0.9999702572822571,
        -1.0
      ],
      "type": "VEC4"
    },
    {
      "bufferView": 1,
      "componentType": 5126,
      "count": 2560,
      "max": [
        0.9994308352470398,
        0.9998999834060669
      ],
      "min": [
        9.995655273087323e-05,
        9.995655273087323e-05
      ],
      "type": "VEC2"
    },
    {
      "bufferView": 0,
      "componentType": 5125,
      "count": 10752,
      "type": "SCALAR"
    }
  ],
  "asset": {
    "extras": {
      "author": "AleixoAlonso (https://sketchfab.com/AleixoAlonso)",
      "license": "CC-BY-4.0 (http://creativecommons.org/licenses/by/4.0/)",
      "source": "https://sketchfab.com/3d-models/7-vinyl-record-a3b32c49a1044b59a8ee2a0bdb9fd4df",
      "title": "7\" Vinyl Record"
    },
    "generator": "Sketchfab-12.66.0",
    "version": "2.0"
  },
  "bufferViews": [
    {
      "buffer": 0,
      "byteLength": 43008,
      "name": "floatBufferViews",
      "target": 34963
    },
    {
      "buffer": 0,
      "byteLength": 20480,
      "byteOffset": 43008,
      "byteStride": 8,
      "name": "floatBufferViews",
      "target": 34962
    },
    {
      "buffer": 0,
      "byteLength": 61440,
      "byteOffset": 63488,
      "byteStride": 12,
      "name": "floatBufferViews",
      "target": 34962
    },
    {
      "buffer": 0,
      "byteLength": 40960,
      "byteOffset": 124928,
      "byteStride": 16,
      "name": "floatBufferViews",
      "target": 34962
    }
  ],
  "buffers": [
    {
      "byteLength": 165888,
      "uri": "scene.bin"
    }
  ],
  "images": [
    {
      "uri": "textures/Default_Material01_baseColor.png"
    },
    {
      "uri": "textures/Default_Material01_metallicRoughness.png"
    },
    {
      "uri": "textures/Default_Material01_normal.png"
    }
  ],
  "materials": [
    {
      "doubleSided": true,
      "name": "Default_Material01",
      "normalTexture": {
        "index": 2
      },
      "occlusionTexture": {
        "index": 1
      },
      "pbrMetallicRoughness": {
        "baseColorTexture": {
          "index": 0
        },
        "metallicRoughnessTexture": {
          "index": 1
        }
      }
    }
  ],
  "meshes": [
    {
      "name": "#REC0001_45_You_Belong_To_Me_(Comstock)_Default_Material01_0",
      "primitives": [
        {
          "attributes": {
            "NORMAL": 1,
            "POSITION": 0,
            "TANGENT": 2,
            "TEXCOORD_0": 3
          },
          "indices": 4,
          "material": 0,
          "mode": 4
        }
      ]
    }
  ],
  "nodes": [
    {
      "children": [
        1
      ],
      "matrix": [
        1.0,
        0.0,
        0.0,
        0.0,
        0.0,
        0.5950924158096316,
        -0.803657293319702,
        0.0,
        0.0,
        0.803657293319702,
        0.5950924158096316,
        0.0,
        0.0,
        0.00011288966197753333,
        -0.0003421806904952973,
        1.0
      ],
      "name": "Sketchfab_model"
    },
    {
      "children": [
        2
      ],
      "matrix": [
        1.0,
        0.0,
        0.0,
        0.0,
        0.0,
        0.0,
        1.0,
        0.0,
        0.0,
        -1.0,
        0.0,
        0.0,
        0.0,
        0.0,
        0.0,
        1.0
      ],
      "name": "45_Record.fbx"
    },
    {
      "children": [
        3
      ],
      "name": "RootNode"
    },
    {
      "children": [
        4
      ],
      "matrix": [
        1.0,
        0.0,
        0.0,
        0.0,
        0.0,
        -1.6292067939183141e-07,
        -0.9999999999999868,
        0.0,
        0.0,
        0.9999999999999868,
        -1.6292067939183141e-07,
        0.0,
        2.2737367544323206e-08,
        0.0,
        -4.2158717405982316e-08,
        1.0
      ],
      "name": "#REC0001_45_You_Belong_To_Me_(Comstock)"
    },
    {
      "mesh": 0,
      "name": "#REC0001_45_You_Belong_To_Me_(Comstock)_Default_Material01_0"
    }
  ],
  "samplers": [
    {
      "magFilter": 9729,
      "minFilter": 9987,
      "wrapS": 10497,
      "wrapT": 10497
    }
  ],
  "scene": 0,
  "scenes": [
    {
      "name": "Sketchfab_Scene",
      "nodes": [
        0
      ]
    }
  ],
  "textures": [
    {
      "sampler": 0,
      "source": 0
    },
    {
      "sampler": 0,
      "source": 1
    },
    {
      "sampler": 0,
      "source": 2
    }
  ]
}
